<?xml version="1.0" encoding="iso-8859-1"?>
<!-- Generator: Adobe Illustrator 19.0.0, SVG Export Plug-In . SVG Version: 6.00 Build 0)  -->
<svg version="1.1" id="Capa_1" xmlns="http://www.w3.org/2000/svg" xmlns:xlink="http://www.w3.org/1999/xlink" x="0px" y="0px"
	 viewBox="0 0 512 512" style="enable-background:new 0 0 512 512;" xml:space="preserve"  width="45" height="45">
<g>
	<path style="fill:#F29C1F;" d="M322.252,76.8H189.748c-6.464,0-12.374,3.652-15.265,9.434l-12.35,24.699l-8.533,12.8h204.8
		l-8.533-12.8l-12.35-24.699C334.626,80.452,328.717,76.8,322.252,76.8z"/>
	<path style="fill:#F0C419;" d="M503.467,153.6v213.333c-0.028,9.414-7.653,17.039-17.067,17.067h-34.133
		c0-37.703-30.564-68.267-68.267-68.267S315.733,346.297,315.733,384H196.267c0-37.703-30.564-68.267-68.267-68.267
		S59.733,346.297,59.733,384H25.6c-9.414-0.028-17.039-7.653-17.067-17.067V153.6c0.069-23.536,19.131-42.598,42.667-42.667h409.6
		C484.336,111.002,503.398,130.064,503.467,153.6z"/>
	<g>
		<path style="fill:#67B9CC;" d="M503.467,153.6v119.467H435.2c-4.707-0.014-8.519-3.826-8.533-8.533v-102.4
			c0.014-4.707,3.826-8.519,8.533-8.533H503.467z"/>
		<path style="fill:#67B9CC;" d="M307.2,153.6h68.267c4.713,0,8.533,3.82,8.533,8.533v102.4c0,4.713-3.821,8.533-8.533,8.533H307.2
			c-4.713,0-8.533-3.82-8.533-8.533v-102.4C298.667,157.421,302.487,153.6,307.2,153.6z"/>
		<path style="fill:#67B9CC;" d="M179.2,153.6h68.267c4.713,0,8.533,3.82,8.533,8.533v102.4c0,4.713-3.82,8.533-8.533,8.533H179.2
			c-4.713,0-8.533-3.82-8.533-8.533v-102.4C170.667,157.421,174.487,153.6,179.2,153.6z"/>
		<path style="fill:#67B9CC;" d="M51.2,153.6h68.267c4.713,0,8.533,3.82,8.533,8.533v102.4c0,4.713-3.82,8.533-8.533,8.533H51.2
			c-4.713,0-8.533-3.82-8.533-8.533v-102.4C42.667,157.421,46.487,153.6,51.2,153.6z"/>
	</g>
	<g>
		<circle style="fill:#5E5F62;" cx="128" cy="384" r="42.667"/>
		<circle style="fill:#5E5F62;" cx="384" cy="384" r="42.667"/>
	</g>
	<path style="fill:#BDC3C7;" d="M503.467,435.2H8.533C3.821,435.2,0,431.38,0,426.667s3.821-8.533,8.533-8.533h494.933
		c4.713,0,8.533,3.82,8.533,8.533S508.18,435.2,503.467,435.2z"/>
	<path style="fill:#E57E25;" d="M486.4,307.2h17.067v42.667H486.4c-4.713,0-8.533-3.821-8.533-8.533v-25.6
		C477.867,311.021,481.687,307.2,486.4,307.2z"/>
	<g>
		<path style="fill:#B0D3F0;" d="M68.267,187.733c-0.573-0.016-1.144-0.073-1.708-0.171c-0.533-0.095-1.05-0.268-1.533-0.512
			c-0.546-0.187-1.064-0.447-1.542-0.771c-0.446-0.313-0.872-0.654-1.275-1.021c-0.366-0.407-0.708-0.834-1.025-1.279
			c-0.325-0.475-0.582-0.992-0.767-1.538c-0.246-0.485-0.42-1.003-0.517-1.537c-0.222-1.127-0.222-2.286,0-3.413
			c0.096-0.535,0.27-1.053,0.517-1.537c0.185-0.543,0.443-1.059,0.767-1.533c0.315-0.447,0.657-0.875,1.025-1.28
			c0.403-0.368,0.829-0.71,1.275-1.025c0.477-0.324,0.996-0.583,1.542-0.771c0.483-0.245,1-0.417,1.534-0.508
			c1.093-0.258,2.232-0.258,3.325,0c0.566,0.079,1.115,0.25,1.625,0.508c0.543,0.188,1.059,0.447,1.533,0.771
			c0.449,0.315,0.878,0.657,1.284,1.025c0.341,0.425,0.683,0.85,1.025,1.279c0.32,0.476,0.578,0.991,0.767,1.533
			c0.247,0.483,0.419,1.002,0.508,1.537c0.099,0.565,0.158,1.136,0.175,1.709c-0.034,2.259-0.918,4.422-2.475,6.059
			c-0.406,0.367-0.835,0.708-1.283,1.021c-0.475,0.324-0.99,0.583-1.533,0.771c-0.51,0.258-1.059,0.431-1.625,0.513
			C69.35,187.661,68.809,187.718,68.267,187.733z"/>
		<path style="fill:#B0D3F0;" d="M68.267,238.933c-2.263,0.001-4.434-0.898-6.035-2.499c-1.6-1.6-2.499-3.771-2.499-6.035v-17.067
			c0-4.713,3.821-8.533,8.533-8.533c4.713,0,8.533,3.82,8.533,8.533V230.4c0.001,2.263-0.898,4.434-2.499,6.035
			C72.701,238.035,70.53,238.934,68.267,238.933z"/>
		<path style="fill:#B0D3F0;" d="M196.267,187.733c-0.573-0.02-1.143-0.077-1.708-0.171c-0.533-0.095-1.05-0.268-1.533-0.512
			c-0.546-0.187-1.064-0.447-1.542-0.771c-0.425-0.338-0.85-0.679-1.275-1.021c-0.753-0.83-1.359-1.783-1.792-2.817
			c-0.911-2.066-0.911-4.421,0-6.487c0.412-1.044,1.02-1.998,1.792-2.813l1.275-1.025c0.477-0.324,0.996-0.583,1.542-0.771
			c0.483-0.246,1-0.417,1.534-0.509c3.198-0.671,6.498,0.542,8.501,3.124c2.003,2.582,2.356,6.08,0.911,9.011
			C202.525,185.902,199.534,187.751,196.267,187.733z"/>
		<path style="fill:#B0D3F0;" d="M196.267,238.933c-2.263,0.001-4.434-0.898-6.035-2.499c-1.6-1.6-2.499-3.771-2.499-6.035v-17.067
			c0-4.713,3.821-8.533,8.533-8.533s8.533,3.82,8.533,8.533V230.4c0.001,2.263-0.898,4.434-2.499,6.035
			C200.701,238.035,198.53,238.934,196.267,238.933z"/>
		<path style="fill:#B0D3F0;" d="M324.267,187.733c-0.573-0.02-1.143-0.077-1.708-0.171c-0.533-0.095-1.05-0.268-1.533-0.512
			c-0.546-0.187-1.064-0.447-1.542-0.771c-0.425-0.338-0.85-0.679-1.275-1.021c-3.3-3.365-3.3-8.752,0-12.117l1.275-1.025
			c0.477-0.324,0.996-0.583,1.542-0.771c0.483-0.246,1-0.417,1.534-0.509c1.098-0.215,2.227-0.215,3.325,0
			c0.566,0.079,1.115,0.25,1.625,0.508c0.524,0.171,1.015,0.432,1.45,0.771c0.508,0.341,0.942,0.683,1.367,1.025
			c2.461,2.441,3.201,6.129,1.872,9.331C330.868,185.674,327.733,187.753,324.267,187.733z"/>
		<path style="fill:#B0D3F0;" d="M324.267,238.933c-2.263,0.001-4.434-0.898-6.035-2.499c-1.6-1.6-2.499-3.771-2.499-6.035v-17.067
			c0-4.713,3.821-8.533,8.533-8.533s8.533,3.82,8.533,8.533V230.4c0.001,2.263-0.898,4.434-2.499,6.035
			C328.701,238.035,326.53,238.934,324.267,238.933z"/>
		<path style="fill:#B0D3F0;" d="M452.267,187.733c-2.259-0.033-4.422-0.917-6.059-2.475c-3.3-3.365-3.3-8.752,0-12.117
			c2.734-2.765,6.986-3.343,10.359-1.407c3.372,1.936,5.018,5.9,4.009,9.655C459.566,185.144,456.155,187.749,452.267,187.733z"/>
		<path style="fill:#B0D3F0;" d="M452.267,238.933c-2.263,0.001-4.434-0.898-6.035-2.499c-1.6-1.6-2.499-3.771-2.499-6.035v-17.067
			c0-4.713,3.82-8.533,8.533-8.533s8.533,3.82,8.533,8.533V230.4c0.001,2.263-0.898,4.434-2.499,6.035
			C456.701,238.035,454.53,238.934,452.267,238.933z"/>
	</g>
	<path style="fill:#F29C1F;" d="M230.4,332.8h51.2c9.426,0,17.067,7.641,17.067,17.067V384h-85.333v-34.133
		C213.333,340.441,220.974,332.8,230.4,332.8z"/>
</g>
<g>
</g>
<g>
</g>
<g>
</g>
<g>
</g>
<g>
</g>
<g>
</g>
<g>
</g>
<g>
</g>
<g>
</g>
<g>
</g>
<g>
</g>
<g>
</g>
<g>
</g>
<g>
</g>
<g>
</g>
</svg>
